<svg id="Layer_1" data-name="Layer 1" xmlns="http://www.w3.org/2000/svg" viewBox="0 0 550.05 344.72"><defs><style>.cls-1{fill:none;stroke:#000;stroke-miterlimit:10;}.cls-2{fill:#b9d6ff;}</style></defs><polygon class="cls-1" points="1.5 58 548.88 58 284.03 344 1.5 58"/><polygon points="550.05 57.5 440 57.5 493.25 0 550.05 57.5"/><polygon points="110.05 57.5 0 57.5 53.25 0 110.05 57.5"/><polygon points="333.52 201 228.86 201 279.5 141.4 333.52 201"/><polygon points="228.86 228 275.03 228 333.52 228 280.5 248.6 228.86 228"/><polygon class="cls-2" points="319.88 128 339.88 122 338.88 143 319.88 128"/><polygon points="368.33 114.63 352.54 154 320.11 128.53 368.33 114.63 348.83 75 302.88 115 409.83 199 368.33 114.63"/><polygon class="cls-2" points="235.88 128 215.88 122 216.88 143 235.88 128"/><polygon points="206.88 75 187.35 114.7 235.33 128.53 202.9 154 187.23 114.94 145.88 199 252.83 115 206.88 75"/></svg>